<svg viewBox="0 0 221 139" fill="currentColor" xmlns="http://www.w3.org/2000/svg">
<path d="M102.694 2L167.187 39.8153L179.845 69.9971L119.514 78.5264L49.4717 31.2614L64.3512 8.63936L102.7 2H102.694Z" stroke="#240066" stroke-width="4" stroke-linejoin="round"/>
<path d="M64.3457 8.64731L126.284 47.9193" stroke="#240066" stroke-width="4" stroke-linecap="round"/>
<path d="M118.034 98.7267L130.669 127.689L66.1219 137L2 90.5083L16.2051 64.3724L46.3729 59.173M119.521 78.5265L126.286 45.9926L167.188 39.8155L119.521 78.5265Z" stroke="#240066" stroke-width="4" stroke-linecap="round" stroke-linejoin="round"/>
<path d="M16.1992 64.3726L75.4183 105.825" stroke="#240066" stroke-width="4" stroke-linecap="round"/>
<path d="M66.127 134.898L76.5459 103.264L118.028 98.8131" stroke="#240066" stroke-width="4" stroke-linecap="round" stroke-linejoin="round"/>
<path d="M172.717 92.939L167.814 122.359L218.865 114.992L208.059 87.126L172.717 92.9349V92.939Z" stroke="#240066" stroke-width="4" stroke-linejoin="round"/>
</svg>
