<svg width="30" height="28" viewBox="0 0 30 28" fill="none" xmlns="http://www.w3.org/2000/svg">
<path d="M15.0077 7.26172C10.7488 7.26172 7.3135 10.2676 7.3135 13.9941C7.3135 17.7207 10.7488 20.7266 15.0077 20.7266C19.2666 20.7266 22.7019 17.7207 22.7019 13.9941C22.7019 10.2676 19.2666 7.26172 15.0077 7.26172ZM15.0077 18.3711C12.2555 18.3711 10.0055 16.4082 10.0055 13.9941C10.0055 11.5801 12.2488 9.61719 15.0077 9.61719C17.7666 9.61719 20.0099 11.5801 20.0099 13.9941C20.0099 16.4082 17.7599 18.3711 15.0077 18.3711ZM24.8113 6.98633C24.8113 7.85938 24.0077 8.55664 23.0166 8.55664C22.0189 8.55664 21.222 7.85352 21.222 6.98633C21.222 6.11914 22.0256 5.41602 23.0166 5.41602C24.0077 5.41602 24.8113 6.11914 24.8113 6.98633ZM29.9073 8.58008C29.7934 6.47656 29.2443 4.61328 27.4831 3.07812C25.7287 1.54297 23.5992 1.0625 21.1952 0.957031C18.7175 0.833984 11.2912 0.833984 8.8135 0.957031C6.41617 1.05664 4.28671 1.53711 2.52555 3.07227C0.764387 4.60742 0.221976 6.4707 0.10144 8.57422C-0.0391846 10.7422 -0.0391846 17.2402 0.10144 19.4082C0.21528 21.5117 0.764387 23.375 2.52555 24.9102C4.28671 26.4453 6.40948 26.9258 8.8135 27.0312C11.2912 27.1543 18.7175 27.1543 21.1952 27.0312C23.5992 26.9316 25.7287 26.4512 27.4831 24.9102C29.2376 23.375 29.7867 21.5117 29.9073 19.4082C30.0479 17.2402 30.0479 10.748 29.9073 8.58008ZM26.7064 21.7344C26.184 22.8828 25.1729 23.7676 23.8537 24.2305C21.8782 24.916 17.1907 24.7578 15.0077 24.7578C12.8247 24.7578 8.13046 24.9102 6.16171 24.2305C4.84921 23.7734 3.83805 22.8887 3.30903 21.7344C2.52555 20.0059 2.70635 15.9043 2.70635 13.9941C2.70635 12.084 2.53224 7.97656 3.30903 6.25391C3.83135 5.10547 4.84251 4.2207 6.16171 3.75781C8.13716 3.07227 12.8247 3.23047 15.0077 3.23047C17.1907 3.23047 21.8849 3.07812 23.8537 3.75781C25.1662 4.21484 26.1773 5.09961 26.7064 6.25391C27.4898 7.98242 27.309 12.084 27.309 13.9941C27.309 15.9043 27.4898 20.0117 26.7064 21.7344Z" fill="currentColor" fill-opacity="0.6"/>
</svg>
