<svg viewBox="0 0 17 14" fill="currentColor" xmlns="http://www.w3.org/2000/svg">
<g clip-path="url(#clip0_28_182)">
<path d="M16.5751 12.25H0.425076C0.190263 12.25 7.5507e-05 12.4458 7.5507e-05 12.6875V13.5625C7.5507e-05 13.8042 0.190263 14 0.425076 14H16.5751C16.8099 14 17.0001 13.8042 17.0001 13.5625V12.6875C17.0001 12.4458 16.8099 12.25 16.5751 12.25ZM2.13969 9.33158C2.3065 9.51862 2.54078 9.62471 2.78595 9.62444L6.25342 9.61951C6.52706 9.61914 6.79678 9.55244 7.04073 9.42483L14.7694 5.38752C15.4796 5.01647 16.1163 4.48682 16.5496 3.79311C17.0359 3.01436 17.0888 2.4508 16.8967 2.05268C16.7052 1.65428 16.2396 1.3617 15.3495 1.30209C14.5566 1.24905 13.768 1.46397 13.0577 1.83475L10.441 3.20166L4.63178 0.957835C4.56193 0.909398 4.48078 0.881045 4.39673 0.875709C4.31267 0.870373 4.22875 0.888247 4.15365 0.927483L2.40717 1.83994C2.12375 1.98787 2.05522 2.37725 2.26984 2.62006L6.41944 5.30248L3.67792 6.73475L1.75612 5.73752C1.68991 5.70316 1.61678 5.6853 1.54263 5.6854C1.46848 5.68549 1.39539 5.70354 1.32926 5.73807L0.26331 6.29506C-0.0140026 6.43998 -0.0870495 6.81787 0.115357 7.06287L2.13969 9.33158Z" fill="currentColor"/>
</g>
<defs>
<clipPath id="clip0_28_182">
<rect fill="white"/>
</clipPath>
</defs>
</svg>
