<svg viewBox="0 0 17 17" fill="currentColor" xmlns="http://www.w3.org/2000/svg">
<g clip-path="url(#clip0_28_155)">
<path d="M6.12848 8.69553C6.23579 9.16027 5.72596 9.51349 5.32935 9.26556L3.97678 8.42037L2.28784 11.1232C1.84677 11.8289 2.35657 12.7495 3.18838 12.7495H4.91454C5.13458 12.7495 5.31298 12.9279 5.31298 13.148V14.4761C5.31298 14.6961 5.13458 14.8745 4.91454 14.8745H3.1918C0.690472 14.8745 -0.83581 12.1171 0.488796 9.99766L2.17625 7.29532L0.824048 6.45037C0.422921 6.19978 0.526349 5.58838 0.986046 5.48223L4.64626 4.63721C4.93217 4.5712 5.21739 4.74947 5.28339 5.03532L6.12848 8.69553ZM9.40101 2.62218L10.7719 4.81611L9.41924 5.66136C9.01911 5.91131 9.12041 6.52308 9.58124 6.6295L13.2415 7.47452C13.5294 7.54089 13.813 7.36036 13.8786 7.07641L14.7236 3.4162C14.8298 2.95653 14.3255 2.59545 13.9245 2.84617L12.5735 3.69032L11.2035 1.49619C9.95766 -0.49709 7.04615 -0.501673 5.79748 1.49619L5.20105 2.45131C5.08451 2.63792 5.14128 2.88365 5.32789 3.00026L6.4541 3.704C6.6407 3.82061 6.88654 3.76387 7.00315 3.57727L7.59951 2.62291C8.02159 1.94752 8.99314 1.9696 9.40101 2.62218ZM16.512 9.99766L15.5984 8.53456C15.4818 8.34786 15.236 8.29105 15.0493 8.40769L13.925 9.11024C13.7384 9.22685 13.6816 9.47265 13.7982 9.65928L14.7134 11.1239C15.1536 11.8282 14.6451 12.7496 13.8124 12.7496H10.6255V11.1564C10.6255 10.6845 10.053 10.4465 9.7186 10.7808L7.06235 13.4364C6.85486 13.6439 6.85486 13.9803 7.06235 14.1877L9.7186 16.8436C10.0507 17.1758 10.6255 16.9431 10.6255 16.4679V14.8745H13.809C16.3083 14.8745 17.8377 12.1188 16.512 9.99766Z" fill="currentColor"/>
</g>
<defs>
<clipPath id="clip0_28_155">
<rect fill="white"/>
</clipPath>
</defs>
</svg>
