<svg viewBox="0 0 17 17" fill="currentColor" xmlns="http://www.w3.org/2000/svg">
<g clip-path="url(#clip0_28_188)">
<path d="M16.6125 2.53865e-07H15.0384C14.9844 -6.06501e-05 14.931 0.0108375 14.8814 0.0320339C14.8318 0.0532303 14.787 0.0842832 14.7497 0.12331C14.7125 0.162336 14.6835 0.208523 14.6646 0.25907C14.6458 0.309616 14.6374 0.36347 14.6399 0.417364L14.7727 3.16525C14.0005 2.25532 13.0394 1.52455 11.9561 1.02379C10.8728 0.523033 9.69343 0.264311 8.5 0.265625C3.96246 0.265625 0.262307 3.96877 0.265627 8.50631C0.268948 13.0512 3.95449 16.7344 8.5 16.7344C10.539 16.7373 12.5061 15.9808 14.0177 14.6124C14.0581 14.5762 14.0907 14.5322 14.1135 14.4831C14.1363 14.4339 14.1488 14.3806 14.1503 14.3264C14.1518 14.2723 14.1422 14.2184 14.1221 14.168C14.1021 14.1177 14.072 14.0719 14.0336 14.0336L12.9047 12.9047C12.8333 12.8333 12.7374 12.7917 12.6364 12.7883C12.5354 12.7849 12.4369 12.82 12.3609 12.8865C11.4688 13.6713 10.3588 14.1655 9.17872 14.3034C7.99863 14.4412 6.80456 14.216 5.7557 13.6579C4.70684 13.0998 3.85301 12.2353 3.30804 11.1795C2.76307 10.1238 2.55286 8.92697 2.70542 7.7487C2.85798 6.57042 3.36606 5.46664 4.16195 4.5845C4.95783 3.70236 6.00369 3.08376 7.16011 2.81119C8.31653 2.53861 9.52856 2.625 10.6346 3.05884C11.7407 3.49267 12.6883 4.25335 13.351 5.23945L9.97987 5.07775C9.92597 5.07519 9.87212 5.0836 9.82157 5.10247C9.77102 5.12135 9.72484 5.15029 9.68581 5.18755C9.64678 5.2248 9.61573 5.2696 9.59454 5.31922C9.57334 5.36883 9.56244 5.42224 9.5625 5.47619V7.05035C9.5625 7.15602 9.60448 7.25737 9.6792 7.33209C9.75392 7.40681 9.85527 7.44879 9.96094 7.44879H16.6125C16.7182 7.44879 16.8195 7.40681 16.8943 7.33209C16.969 7.25737 17.011 7.15602 17.011 7.05035V0.398438C17.011 0.292766 16.969 0.191421 16.8943 0.1167C16.8195 0.0419784 16.7182 2.53865e-07 16.6125 2.53865e-07Z" fill="currentColor"/>
</g>
<defs>
<clipPath id="clip0_28_188">
<rect fill="white"/>
</clipPath>
</defs>
</svg>
