<svg viewBox="0 0 17 16" fill="currentColor" xmlns="http://www.w3.org/2000/svg">
<path d="M17 6.75V7.25C17 7.66422 16.6829 8 16.2917 8H16.0556L15.2849 13.7121C15.1852 14.4511 14.5874 15 13.8824 15H3.11755C2.41255 15 1.81484 14.4511 1.71511 13.7121L0.944444 8H0.708333C0.317127 8 0 7.66422 0 7.25V6.75C0 6.33578 0.317127 6 0.708333 6H2.69583L5.84732 1.41184C6.15412 0.965216 6.74475 0.866434 7.16662 1.19128C7.58846 1.51612 7.68173 2.14153 7.37493 2.58818L5.03144 6H11.9686L9.62507 2.58815C9.31827 2.14153 9.41156 1.51609 9.83341 1.19125C10.2552 0.866403 10.8459 0.965153 11.1527 1.41181L14.3042 6H16.2917C16.6829 6 17 6.33578 17 6.75ZM9.20833 12.25V8.75C9.20833 8.33578 8.89121 8 8.5 8C8.10879 8 7.79167 8.33578 7.79167 8.75V12.25C7.79167 12.6642 8.10879 13 8.5 13C8.89121 13 9.20833 12.6642 9.20833 12.25ZM12.5139 12.25V8.75C12.5139 8.33578 12.1968 8 11.8056 8C11.4143 8 11.0972 8.33578 11.0972 8.75V12.25C11.0972 12.6642 11.4143 13 11.8056 13C12.1968 13 12.5139 12.6642 12.5139 12.25ZM5.90278 12.25V8.75C5.90278 8.33578 5.58565 8 5.19444 8C4.80324 8 4.48611 8.33578 4.48611 8.75V12.25C4.48611 12.6642 4.80324 13 5.19444 13C5.58565 13 5.90278 12.6642 5.90278 12.25Z" fill="currentColor"/>
</svg>
