<svg width="30" height="30" viewBox="0 0 30 30" fill="currentColor" xmlns="http://www.w3.org/2000/svg">
<path d="M30 12.2994C27.0518 12.3056 24.176 11.5011 21.7788 9.99961V20.4715C21.778 22.411 21.1004 24.3041 19.8368 25.8975C18.5732 27.491 16.7838 28.709 14.7077 29.3886C12.6317 30.0682 10.368 30.177 8.21935 29.7005C6.07071 29.2239 4.13955 28.1848 2.68408 26.722C1.22861 25.2592 0.318205 23.4425 0.0746082 21.5147C-0.168989 19.5869 0.265829 17.6401 1.32092 15.9344C2.37601 14.2287 4.00109 12.8455 5.97885 11.9698C7.95661 11.094 10.1928 10.7675 12.3884 11.0338V16.3008C11.3837 16.0243 10.3048 16.0326 9.30582 16.3246C8.30685 16.6166 7.43887 17.1773 6.82583 17.9267C6.21279 18.6761 5.88604 19.5758 5.89224 20.4973C5.89845 21.4189 6.23729 22.3152 6.86037 23.0582C7.48346 23.8012 8.35893 24.3529 9.36176 24.6346C10.3646 24.9163 11.4435 24.9135 12.4444 24.6266C13.4453 24.3398 14.317 23.7835 14.9351 23.0373C15.5532 22.2911 15.8859 21.3931 15.8859 20.4715V0H21.7788C21.7747 0.435434 21.8164 0.870274 21.9033 1.29902C22.1081 2.25614 22.5339 3.16665 23.1546 3.97484C23.7753 4.78304 24.5779 5.47195 25.5134 5.99941C26.8442 6.76939 28.4045 7.17979 30 7.17949V12.2994Z" fill="currentColor" fill-opacity="0.6"/>
</svg>
