<svg viewBox="0 0 19 15" fill="currentColor" xmlns="http://www.w3.org/2000/svg">
<path d="M18.525 10.3125H18.05V7.14551C18.05 6.77344 17.8986 6.41602 17.6314 6.15234L14.6656 3.22559C14.3984 2.96191 14.0363 2.8125 13.6592 2.8125H12.35V1.40625C12.35 0.629883 11.7117 0 10.925 0H1.425C0.638281 0 0 0.629883 0 1.40625V10.7812C0 11.5576 0.638281 12.1875 1.425 12.1875H1.9C1.9 13.7402 3.17656 15 4.75 15C6.32344 15 7.6 13.7402 7.6 12.1875H11.4C11.4 13.7402 12.6766 15 14.25 15C15.8234 15 17.1 13.7402 17.1 12.1875H18.525C18.7862 12.1875 19 11.9766 19 11.7188V10.7812C19 10.5234 18.7862 10.3125 18.525 10.3125ZM4.75 13.5938C3.96328 13.5938 3.325 12.9639 3.325 12.1875C3.325 11.4111 3.96328 10.7812 4.75 10.7812C5.53672 10.7812 6.175 11.4111 6.175 12.1875C6.175 12.9639 5.53672 13.5938 4.75 13.5938ZM14.25 13.5938C13.4633 13.5938 12.825 12.9639 12.825 12.1875C12.825 11.4111 13.4633 10.7812 14.25 10.7812C15.0367 10.7812 15.675 11.4111 15.675 12.1875C15.675 12.9639 15.0367 13.5938 14.25 13.5938ZM16.625 7.5H12.35V4.21875H13.6592L16.625 7.14551V7.5Z" fill="currentColor"/>
</svg>
